<?xml version="1.0" standalone="no"?>
<!DOCTYPE svg PUBLIC "-//W3C//DTD SVG 20010904//EN"
 "http://www.w3.org/TR/2001/REC-SVG-20010904/DTD/svg10.dtd">
<svg version="1.0" xmlns="http://www.w3.org/2000/svg"
 width="1536.000000pt" height="1024.000000pt" viewBox="0 0 1536.000000 1024.000000"
 preserveAspectRatio="xMidYMid meet">

<g transform="translate(0.000000,1024.000000) scale(0.100000,-0.100000)"
fill="#000000" stroke="none">
<path d="M5200 6841 c-97 -54 -303 -165 -570 -306 -102 -54 -302 -161 -445
-238 -143 -76 -332 -177 -420 -224 -88 -47 -203 -109 -255 -138 -52 -29 -123
-67 -157 -86 l-63 -34 0 -62 0 -62 78 28 c444 166 991 406 1550 682 l383 189
272 -138 c468 -238 996 -478 1442 -655 213 -85 302 -116 309 -110 3 4 6 32 6
63 l0 56 -62 31 c-35 18 -135 71 -223 119 -88 47 -234 125 -325 174 -91 48
-235 124 -320 170 -85 45 -229 122 -320 170 -91 48 -301 160 -467 249 -167 89
-308 163 -315 165 -7 2 -51 -17 -98 -43z"/>
<path d="M4730 6095 c-19 -7 -117 -46 -217 -85 l-183 -72 0 -118 0 -119 33 -5
c40 -7 197 -26 209 -26 4 0 8 -259 8 -575 l0 -575 -22 0 c-13 0 -95 -7 -183
-15 -88 -8 -175 -15 -192 -15 l-33 0 0 170 0 170 195 0 195 0 0 26 0 26 -195
-4 -195 -3 0 80 0 80 197 0 c191 0 198 1 198 20 0 19 -8 20 -197 23 l-198 2 0
87 c0 68 3 84 12 75 8 -8 66 -12 196 -12 l183 0 -3 23 c-3 22 -5 22 -182 25
-123 2 -183 -1 -192 -9 -12 -10 -14 4 -14 85 0 93 1 96 19 86 12 -6 93 -10
195 -10 166 0 176 1 176 19 0 17 -11 20 -92 26 -51 4 -139 5 -196 3 l-102 -3
0 117 c0 64 -3 119 -7 121 -5 2 -89 -27 -188 -64 l-180 -67 -5 -574 -5 -573
-30 -3 c-122 -11 -531 -113 -554 -139 -4 -3 19 -3 49 1 235 26 1051 82 1415
96 323 13 1111 13 1470 0 396 -14 1157 -64 1465 -95 41 -4 38 -2 -30 21 -103
34 -339 88 -495 113 -322 50 -620 77 -1208 107 l-118 6 3 62 3 61 733 3 732 2
0 -99 0 -98 61 -7 c34 -3 75 -6 90 -6 l29 0 0 280 c0 267 -1 281 -20 300 -14
14 -33 20 -63 20 -60 0 -87 -29 -87 -93 l0 -46 -42 -6 c-24 -3 -356 -5 -738
-3 l-695 3 -5 255 c-3 140 -7 256 -8 257 -16 18 -94 44 -135 46 l-52 2 -3
-465 -2 -466 -306 -1 c-168 -1 -336 -4 -374 -8 l-70 -7 0 791 c0 435 -3 791
-7 790 -5 0 -24 -6 -43 -14z"/>
<path d="M8301 5349 c-141 -28 -228 -78 -262 -153 -51 -113 8 -227 147 -280
64 -24 112 -34 252 -51 205 -25 262 -48 262 -106 0 -61 -82 -92 -240 -91 -122
1 -196 18 -296 67 -40 19 -74 35 -76 35 -3 0 -26 -31 -51 -69 -34 -52 -43 -72
-34 -79 27 -22 101 -53 184 -79 82 -25 101 -27 273 -27 175 0 189 1 265 27
123 41 184 100 200 193 15 91 -35 173 -135 224 -75 38 -147 55 -310 75 -196
23 -257 58 -215 121 22 34 55 45 161 51 113 7 209 -9 297 -50 l69 -31 17 23
c10 12 28 43 42 67 24 45 24 46 5 60 -30 22 -115 51 -199 68 -82 17 -281 20
-356 5z"/>
<path d="M11518 5350 c-141 -24 -226 -72 -265 -150 -54 -105 -10 -211 112
-273 50 -25 141 -45 280 -62 199 -24 265 -50 265 -105 0 -59 -80 -92 -225 -92
-127 -1 -199 14 -304 63 -46 21 -87 37 -91 34 -4 -3 -26 -34 -48 -70 l-41 -65
22 -14 c98 -64 229 -97 417 -103 135 -4 166 -2 245 16 101 24 158 54 203 105
73 84 65 209 -18 279 -79 67 -168 96 -380 122 -180 22 -230 42 -230 91 0 103
316 113 507 16 l41 -21 42 70 c34 57 40 73 29 80 -35 22 -172 69 -230 78 -73
12 -261 12 -331 1z"/>
<path d="M9020 5260 l0 -80 170 0 170 0 0 -302 c0 -167 3 -313 6 -326 6 -22 9
-23 118 -20 l111 3 3 323 2 322 165 0 165 0 0 80 0 80 -455 0 -455 0 0 -80z"/>
<path d="M10056 5328 c5 -7 102 -124 216 -261 l208 -248 0 -145 0 -144 110 0
110 0 0 148 0 147 113 131 c194 226 312 366 315 375 2 5 -49 9 -116 9 l-120 0
-89 -106 c-48 -59 -116 -139 -149 -180 l-62 -73 -148 179 -149 179 -123 0
c-95 1 -121 -2 -116 -11z"/>
</g>
</svg>
